<svg width="126" height="24" viewBox="0 0 126 24" fill="none" xmlns="http://www.w3.org/2000/svg">
<path d="M5.825 22L7.45 14.975L2 10.25L9.2 9.625L12 3L14.8 9.625L22 10.25L16.55 14.975L18.175 22L12 18.275L5.825 22Z" fill="#1D1B20"/>
<path d="M29.825 22L31.45 14.975L26 10.25L33.2 9.625L36 3L38.8 9.625L46 10.25L40.55 14.975L42.175 22L36 18.275L29.825 22Z" fill="#1D1B20"/>
<path d="M55.825 22L57.45 14.975L52 10.25L59.2 9.625L62 3L64.8 9.625L72 10.25L66.55 14.975L68.175 22L62 18.275L55.825 22Z" fill="#1D1B20"/>
<path d="M81.825 22L83.45 14.975L78 10.25L85.2 9.625L88 3L90.8 9.625L98 10.25L92.55 14.975L94.175 22L88 18.275L81.825 22Z" fill="#1D1B20"/>
<path d="M110.85 17.825L114 15.925L117.15 17.85L116.325 14.25L119.1 11.85L115.45 11.525L114 8.125L112.55 11.5L108.9 11.825L111.675 14.25L110.85 17.825ZM107.825 22L109.45 14.975L104 10.25L111.2 9.625L114 3L116.8 9.625L124 10.25L118.55 14.975L120.175 22L114 18.275L107.825 22Z" fill="#1D1B20"/>
</svg>
