<svg width="350" height="284" viewBox="0 0 350 284" fill="none" xmlns="http://www.w3.org/2000/svg">
<path d="M19.2845 49.1446C16.8056 52.5048 15.8397 56.0322 16.5295 59.476C17.2192 62.9198 18.9197 67.2094 22.0396 71.185C25.2294 75.2497 27.4668 77.8235 32.371 79.4501C37.4834 81.1459 41.2596 81.027 46.1463 78.7614C50.6326 76.6814 53.0987 74.3294 55.1002 69.8075C57.0628 65.3733 56.962 62.1148 55.7889 57.4097C54.5612 52.4854 52.5523 49.9147 48.9013 46.3895C46.5393 44.1089 45.1085 42.6647 42.0137 41.5682C36.6354 39.6626 27.5497 43.6345 27.5497 43.6345C27.5497 43.6345 21.5875 46.0229 19.2845 49.1446Z" fill="#FF00C3" stroke="black" stroke-width="1.37753"/>
<path d="M37.193 102.179C26.1722 108.378 17.9083 117.332 12.3976 125.597C6.8868 133.862 5.64395 135.563 3.44364 142.816C1.16707 150.321 0.488477 154.999 1.37735 162.79C2.35155 171.33 4.58899 176.049 8.95375 183.453C13.5027 191.17 17.1162 194.996 23.4184 201.361C30.2549 208.266 34.572 211.883 42.7031 217.203C52.4859 223.603 58.822 226.465 70.2536 228.912C79.4744 230.885 84.9589 231.017 94.3603 230.289C104.25 229.523 109.647 227.602 119.156 224.779C125.435 222.915 134.997 219.269 134.997 219.269C134.997 219.269 154.301 211.643 166.68 213.759C176.997 215.522 183.412 218.042 190.787 225.468C198.677 233.413 199.053 242.687 203.186 252.33C207.318 261.973 211.448 268.853 221.093 275.059C229.824 280.677 236.282 280.598 246.577 281.946C259.137 283.592 266.709 283.147 278.949 279.88C292.082 276.375 299.39 272.607 309.943 264.039C319.728 256.093 323.776 249.837 330.606 239.243C337.255 228.93 340.794 222.738 344.381 211.004C348.576 197.284 349.255 188.827 348.514 174.499C347.789 160.485 345.07 148.326 340.937 139.373C336.805 130.419 329.228 117.332 326.473 113.2C323.718 109.067 316.831 99.4243 305.122 92.5367C293.413 85.649 286.189 84.2087 273.439 80.8277C260.787 77.4728 253.427 76.3428 240.378 75.3176C228.579 74.3905 219.026 76.6951 210.072 75.3176C201.119 73.9401 191.904 71.4385 183.899 63.6086C175.465 55.3585 177.482 46.2288 171.502 36.0581C167.001 28.4028 161.17 20.2166 158.415 17.4615C155.66 14.7064 149.967 9.15804 132.931 3.68624C121.663 0.066986 113.918 0.142384 102.625 3.68624C91.3773 7.21634 84.7177 11.2626 77.83 20.9053C70.9424 30.548 68.8761 40.1907 70.9424 53.9659C73.0087 67.7412 69.7428 74.2433 62.6772 84.2715C55.6714 94.215 48.2139 95.9804 37.193 102.179Z" fill="url(#paint0_linear_317_176)" stroke="black" stroke-width="1.37753"/>
<path d="M154.283 227.534C151.242 231.642 151.991 236.053 154.283 240.621C155.566 243.176 156.875 245.029 159.105 246.82C161.264 248.554 162.566 249.152 165.303 249.575C168.014 249.993 169.671 249.968 172.191 248.886C176.214 247.158 178.596 244.87 181.145 241.309C182.407 239.546 182.993 237.957 183.211 235.799C183.478 233.164 182.523 231.667 180.456 229.6C178.389 227.534 174.976 225.309 170.813 224.09C166.933 222.954 164.325 222.145 160.482 223.402C157.717 224.306 156.014 225.196 154.283 227.534Z" fill="url(#paint1_linear_317_176)" stroke="black" stroke-width="1.37753"/>
<path d="M194.864 39.4483C191.823 43.5559 192.572 47.9672 194.864 52.5348C196.147 55.0903 197.456 56.943 199.686 58.7336C201.845 60.468 203.147 61.0664 205.884 61.4887C208.595 61.907 210.252 61.8823 212.772 60.7999C216.795 59.0721 219.177 56.7838 221.726 53.2235C222.988 51.4603 223.574 49.871 223.792 47.7134C224.059 45.0778 223.104 43.5809 221.037 41.5146C218.97 39.4483 215.557 37.223 211.394 36.0045C207.514 34.8684 204.906 34.0589 201.063 35.3157C198.298 36.22 196.595 37.1098 194.864 39.4483Z" fill="url(#paint2_linear_317_176)" stroke="black" stroke-width="1.37753"/>
<defs>
<linearGradient id="paint0_linear_317_176" x1="47.1288" y1="1.00001" x2="302.646" y2="282.877" gradientUnits="userSpaceOnUse">
<stop stop-color="#FF00C3"/>
<stop offset="0.824616" stop-color="#851DD0"/>
</linearGradient>
<linearGradient id="paint1_linear_317_176" x1="152.273" y1="224.971" x2="183.255" y2="247.622" gradientUnits="userSpaceOnUse">
<stop stop-color="#FF00C3"/>
<stop offset="0.766035" stop-color="#9C17CD"/>
</linearGradient>
<linearGradient id="paint2_linear_317_176" x1="192.854" y1="35.2429" x2="227.981" y2="70.4962" gradientUnits="userSpaceOnUse">
<stop stop-color="#FF00CC"/>
<stop offset="1" stop-color="#851DD0"/>
</linearGradient>
</defs>
</svg>
