<svg width="211" height="39" viewBox="0 0 211 39" fill="none" xmlns="http://www.w3.org/2000/svg">
<line x1="2.00015" y1="33.769" x2="2.00015" y2="-6.48499e-05" stroke="white" stroke-width="3.80488"/>
<line x1="2" y1="18.0731" x2="15.7927" y2="18.0731" stroke="white" stroke-width="4.75609"/>
<line x1="17.6952" y1="33.7683" x2="17.6952" y2="20.4512" stroke="white" stroke-width="3.80488"/>
<line x1="23.4022" y1="19.4998" x2="23.4022" y2="33.768" stroke="white" stroke-width="3.80488"/>
<line x1="23.4025" y1="18.5486" x2="23.4025" y2="17.1218" stroke="white" stroke-width="3.80488"/>
<line x1="117.902" y1="18.9971" x2="117.902" y2="34.4971" stroke="white" stroke-width="3.80488"/>
<line x1="117.903" y1="17.427" x2="117.903" y2="16.0002" stroke="white" stroke-width="3.80488"/>
<line x1="32.9147" y1="31.6282" x2="32.9147" y2="28.2989" stroke="white" stroke-width="3.80488"/>
<line x1="40.5241" y1="31.3904" x2="40.5241" y2="28.0611" stroke="white" stroke-width="3.80488"/>
<line x1="36.7194" y1="34.4817" x2="36.7194" y2="31.1524" stroke="white" stroke-width="3.80488"/>
<line x1="44.3293" y1="28.2986" x2="44.3293" y2="16.4083" stroke="white" stroke-width="3.80488"/>
<line y1="-1.90244" x2="11.8902" y2="-1.90244" transform="matrix(0 -1 -1 0 27.2073 28.5364)" stroke="white" stroke-width="3.80488"/>
<line x1="86.0639" y1="34.4814" x2="86.0639" y2="30.9144" stroke="white" stroke-width="3.56707"/>
<line x1="88.9176" y1="34.4814" x2="88.9176" y2="30.9144" stroke="white" stroke-width="3.56707"/>
<line x1="90.3444" y1="34.4814" x2="90.3444" y2="30.9144" stroke="white" stroke-width="3.56707"/>
<line y1="-1.90244" x2="16.1707" y2="-1.90244" transform="matrix(0 -1 -1 0 80.4756 31.1523)" stroke="white" stroke-width="3.80488"/>
<line y1="-1.90244" x2="15.9329" y2="-1.90244" transform="matrix(0 -1 -1 0 92.1279 30.9146)" stroke="white" stroke-width="3.80488"/>
<line x1="70.0119" y1="18.5488" x2="70.0119" y2="14.9818" stroke="white" stroke-width="3.80488"/>
<line x1="72.8659" y1="18.5488" x2="72.8659" y2="14.9818" stroke="white" stroke-width="3.80488"/>
<line x1="76.6706" y1="21.8779" x2="76.6706" y2="18.5487" stroke="white" stroke-width="3.80488"/>
<line x1="66.2074" y1="18.5488" x2="66.2074" y2="34.4817" stroke="white" stroke-width="3.80488"/>
<line x1="109.963" y1="16.5277" x2="101.402" y2="16.5277" stroke="white" stroke-width="3.09146"/>
<g filter="url(#filter0_d_217_302)">
<line x1="109.963" y1="24.3751" x2="101.402" y2="24.3751" stroke="white" stroke-width="3.09146"/>
</g>
<line x1="109.963" y1="32.4603" x2="101.402" y2="32.4603" stroke="white" stroke-width="3.09146"/>
<line x1="109.963" y1="20.2135" x2="113.53" y2="20.2135" stroke="white" stroke-width="3.80488"/>
<line x1="97.8354" y1="29.131" x2="101.403" y2="29.131" stroke="white" stroke-width="3.56707"/>
<line x1="97.8354" y1="19.2621" x2="101.403" y2="19.2621" stroke="white" stroke-width="2.37805"/>
<line x1="109.963" y1="27.1096" x2="113.53" y2="27.1096" stroke="white" stroke-width="2.37805"/>
<line x1="97.8354" y1="20.9269" x2="101.403" y2="20.9269" stroke="white" stroke-width="3.80488"/>
<line x1="109.963" y1="29.0121" x2="113.53" y2="29.0121" stroke="white" stroke-width="3.80488"/>
<line x1="125.805" y1="16.2165" x2="132.939" y2="16.2165" stroke="white" stroke-width="3.56707"/>
<line y1="-1.90244" x2="12.8415" y2="-1.90244" transform="matrix(0 -1 -1 0 132.939 30.8413)" stroke="white" stroke-width="3.80488"/>
<line y1="-1.90244" x2="12.8415" y2="-1.90244" transform="matrix(0 -1 -1 0 122 30.8413)" stroke="white" stroke-width="3.80488"/>
<line x1="125.805" y1="32.6249" x2="132.939" y2="32.6249" stroke="white" stroke-width="3.56707"/>
<line x1="140.902" y1="29.8901" x2="140.902" y2="17.9999" stroke="white" stroke-width="3.80488"/>
<line x1="150.89" y1="29.8901" x2="150.89" y2="22.756" stroke="white" stroke-width="3.80488"/>
<line x1="139" y1="16.0976" x2="142.805" y2="16.0976" stroke="white" stroke-width="3.80488"/>
<line x1="139" y1="31.9115" x2="142.805" y2="31.9115" stroke="white" stroke-width="4.51829"/>
<line x1="148.988" y1="31.7926" x2="152.793" y2="31.7926" stroke="white" stroke-width="4.75609"/>
<line x1="142.805" y1="18.5944" x2="146.61" y2="18.5944" stroke="white" stroke-width="3.56707"/>
<line x1="145.183" y1="18.5944" x2="148.988" y2="18.5944" stroke="white" stroke-width="3.56707"/>
<line x1="148.988" y1="21.3293" x2="152.793" y2="21.3293" stroke="white" stroke-width="2.85366"/>
<line x1="176.79" y1="11.1274" x2="186.709" y2="11.1274" stroke="#F33D3D" stroke-width="4.34961"/>
<line x1="176.79" y1="24.1638" x2="187.842" y2="24.1638" stroke="#F33D3D" stroke-width="4.34961"/>
<line y1="-2.17481" x2="24.3719" y2="-2.17481" transform="matrix(0 -1 -1 0 173.956 37.6741)" stroke="#F33D3D" stroke-width="4.34961"/>
<line y1="-2.17481" x2="24.3719" y2="-2.17481" transform="matrix(0 -1 -1 0 194.808 37.7214)" stroke="#F33D3D" stroke-width="4.34961"/>
<line y1="-2.17481" x2="24.3719" y2="-2.17481" transform="matrix(0 -1 -1 0 186.709 37.6741)" stroke="#F33D3D" stroke-width="4.34961"/>
<line x1="198.154" y1="11.5095" x2="200.988" y2="11.5095" stroke="#F33D3D" stroke-width="4.34961"/>
<line x1="203.712" y1="23.6994" x2="206.546" y2="23.6994" stroke="#F33D3D" stroke-width="3.01127"/>
<line x1="200.879" y1="23.6994" x2="203.713" y2="23.6994" stroke="#F33D3D" stroke-width="3.01127"/>
<line x1="200.831" y1="11.5095" x2="203.665" y2="11.5095" stroke="#F33D3D" stroke-width="4.34961"/>
<line x1="198.044" y1="23.6994" x2="200.878" y2="23.6994" stroke="#F33D3D" stroke-width="3.01127"/>
<line x1="198.154" y1="35.7669" x2="204.177" y2="35.7669" stroke="#F33D3D" stroke-width="4.01503"/>
<line x1="203.507" y1="11.5095" x2="206.519" y2="11.5095" stroke="#F33D3D" stroke-width="4.34961"/>
<line x1="203.842" y1="35.7669" x2="206.519" y2="35.7669" stroke="#F33D3D" stroke-width="4.01503"/>
<line x1="206.519" y1="15.3573" x2="210.534" y2="15.3573" stroke="#F33D3D" stroke-width="3.34586"/>
<line x1="206.519" y1="28.7406" x2="210.534" y2="28.7406" stroke="#F33D3D" stroke-width="3.34586"/>
<line x1="206.546" y1="17.8639" x2="210.561" y2="17.8639" stroke="#F33D3D" stroke-width="3.34586"/>
<line x1="206.519" y1="26.7331" x2="210.534" y2="26.7331" stroke="#F33D3D" stroke-width="3.34586"/>
<line x1="206.546" y1="20.6982" x2="210.561" y2="20.6982" stroke="#F33D3D" stroke-width="3.34586"/>
<line x1="206.519" y1="32.0863" x2="210.534" y2="32.0863" stroke="#F33D3D" stroke-width="3.34586"/>
<line x1="159.175" y1="9" x2="159.175" y2="34.5055" stroke="#F33D3D" stroke-width="4.34961"/>
<line x1="159.834" y1="35.1645" x2="170.603" y2="35.1645" stroke="#F33D3D" stroke-width="4.34961"/>
<line x1="60.7377" y1="20.9268" x2="60.7377" y2="18.5487" stroke="white" stroke-width="3.32927"/>
<line x1="51.939" y1="17.1217" x2="59.0731" y2="17.1217" stroke="white" stroke-width="3.80488"/>
<line x1="51.939" y1="24.7318" x2="59.0731" y2="24.7318" stroke="white" stroke-width="3.80488"/>
<line x1="50.0365" y1="19.0242" x2="50.0365" y2="30.9144" stroke="white" stroke-width="3.80488"/>
<line x1="51.939" y1="32.5793" x2="60.4999" y2="32.5793" stroke="white" stroke-width="3.80488"/>
<line x1="60.7377" y1="23.3049" x2="60.7377" y2="20.9269" stroke="white" stroke-width="3.32927"/>
<line x1="70.9634" y1="38.8811" x2="72.8658" y2="38.8811" stroke="black" stroke-width="0.237805"/>
<line x1="68.1099" y1="24.494" x2="73.5794" y2="24.494" stroke="white" stroke-width="3.80488"/>
<defs>
<filter id="filter0_d_217_302" x="100.451" y="22.8293" width="10.4635" height="4.99399" filterUnits="userSpaceOnUse" color-interpolation-filters="sRGB">
<feFlood flood-opacity="0" result="BackgroundImageFix"/>
<feColorMatrix in="SourceAlpha" type="matrix" values="0 0 0 0 0 0 0 0 0 0 0 0 0 0 0 0 0 0 127 0" result="hardAlpha"/>
<feOffset dy="0.951219"/>
<feGaussianBlur stdDeviation="0.475609"/>
<feComposite in2="hardAlpha" operator="out"/>
<feColorMatrix type="matrix" values="0 0 0 0 0 0 0 0 0 0 0 0 0 0 0 0 0 0 0.25 0"/>
<feBlend mode="normal" in2="BackgroundImageFix" result="effect1_dropShadow_217_302"/>
<feBlend mode="normal" in="SourceGraphic" in2="effect1_dropShadow_217_302" result="shape"/>
</filter>
</defs>
</svg>
