<svg width="1440" height="173" viewBox="0 0 1440 173" fill="none" xmlns="http://www.w3.org/2000/svg">
<g clip-path="url(#clip0_312_159)">
<path d="M1439.48 0H-8.47803V173H1439.48V0Z" fill="black"/>
<path d="M-732.454 108.125C-732.454 108.125 -551.46 64.8749 -370.465 64.8749C-189.471 64.8749 -8.47677 108.125 -8.47677 108.125C-8.47677 108.125 172.518 151.375 353.512 151.375C534.506 151.375 715.501 108.125 715.501 108.125C715.501 108.125 896.495 64.8749 1077.49 64.8749C1258.48 64.8749 1439.48 108.125 1439.48 108.125C1439.48 108.125 1620.47 151.375 1801.47 151.375C1982.46 151.375 2163.46 108.125 2163.46 108.125" stroke="#222222" stroke-opacity="0.71" stroke-width="10.502"/>
<path d="M-732.454 64.875C-732.454 64.875 -551.46 21.625 -370.465 21.625C-189.471 21.625 -8.47677 64.875 -8.47677 64.875C-8.47677 64.875 172.518 108.125 353.512 108.125C534.506 108.125 715.501 64.875 715.501 64.875C715.501 64.875 896.495 21.625 1077.49 21.625C1258.48 21.625 1439.48 64.875 1439.48 64.875C1439.48 64.875 1620.47 108.125 1801.47 108.125C1982.46 108.125 2163.46 64.875 2163.46 64.875" stroke="#222222" stroke-opacity="0.71" stroke-width="10.502"/>
<path d="M-732.454 151.375C-732.454 151.375 -551.46 108.125 -370.465 108.125C-189.471 108.125 -8.47677 151.375 -8.47677 151.375C-8.47677 151.375 172.518 194.625 353.512 194.625C534.506 194.625 715.501 151.375 715.501 151.375C715.501 151.375 896.495 108.125 1077.49 108.125C1258.48 108.125 1439.48 151.375 1439.48 151.375C1439.48 151.375 1620.47 194.625 1801.47 194.625C1982.46 194.625 2163.46 151.375 2163.46 151.375" stroke="#222222" stroke-opacity="0.71" stroke-width="10.502"/>
<path d="M-732.454 21.6249C-732.454 21.6249 -551.46 -21.6251 -370.465 -21.6251C-189.471 -21.6251 -8.47677 21.6249 -8.47677 21.6249C-8.47677 21.6249 172.518 64.8749 353.512 64.8749C534.506 64.8749 715.501 21.6249 715.501 21.6249C715.501 21.6249 896.495 -21.6251 1077.49 -21.6251C1258.48 -21.6251 1439.48 21.6249 1439.48 21.6249C1439.48 21.6249 1620.47 64.8749 1801.47 64.8749C1982.46 64.8749 2163.46 21.6249 2163.46 21.6249" stroke="#222222" stroke-opacity="0.71" stroke-width="10.502"/>
<path d="M-732.454 -21.625C-732.454 -21.625 -551.46 -64.875 -370.465 -64.875C-189.471 -64.875 -8.47677 -21.625 -8.47677 -21.625C-8.47677 -21.625 172.518 21.625 353.512 21.625C534.506 21.625 715.501 -21.625 715.501 -21.625C715.501 -21.625 896.495 -64.875 1077.49 -64.875C1258.48 -64.875 1439.48 -21.625 1439.48 -21.625C1439.48 -21.625 1620.47 21.625 1801.47 21.625C1982.46 21.625 2163.46 -21.625 2163.46 -21.625" stroke="#222222" stroke-opacity="0.71" stroke-width="10.502"/>
<path d="M-732.454 194.625C-732.454 194.625 -551.46 151.375 -370.465 151.375C-189.471 151.375 -8.47677 194.625 -8.47677 194.625C-8.47677 194.625 172.518 237.875 353.512 237.875C534.506 237.875 715.501 194.625 715.501 194.625C715.501 194.625 896.495 151.375 1077.49 151.375C1258.48 151.375 1439.48 194.625 1439.48 194.625C1439.48 194.625 1620.47 237.875 1801.47 237.875C1982.46 237.875 2163.46 194.625 2163.46 194.625" stroke="#222222" stroke-opacity="0.71" stroke-width="10.502"/>
</g>
<defs>
<clipPath id="clip0_312_159">
<rect width="1449" height="173" fill="white" transform="translate(-9)"/>
</clipPath>
</defs>
</svg>
