<svg width="185" height="37" viewBox="0 0 185 37" fill="none" xmlns="http://www.w3.org/2000/svg">
<g clip-path="url(#clip0_2_25)">
<path d="M1.67096 33.8975V0M1.43225 18.8581H15.2774M16.471 33.8968V20.529M24.5871 19.5742V33.8968M24.1097 18.6194V17.1871" stroke="#1F2427" stroke-width="3.34194"/>
<path d="M106.942 21.2452V35.5677M106.942 20.2903V18.8581M58.2452 25.5419V23.1548M51.0839 35.0903V32.7032" stroke="#1F2427" stroke-width="2.86452"/>
<path d="M55.3806 33.8968H57.7677" stroke="#1F2427" stroke-width="2.3871"/>
<path d="M33.8968 32.2258V29.8387M39.3871 32.2258V29.8387M36.5226 34.6129V32.2258M42.2516 29.8387V17.9032M31.5097 29.8387V17.9032" stroke="#1F2427" stroke-width="3.34194"/>
<path d="M79.729 35.329V32.9419M82.5935 35.329V32.9419M84.0258 35.329V32.9419M76.8645 32.9419V17.9032M86.8903 32.9419V17.9032M65.6452 21.2452V18.1419M68.5097 21.2452V18.1419M71.3742 23.6323V20.529M65.6452 27.929V25.5419M68.5097 27.929V25.5419M62.7806 21.0065V35.0903M58.2452 23.1548V20.7677M53.9484 35.0903V32.7032M49.6516 19.3355H56.8129M49.6516 26.9742H56.8129M48.2193 20.7677V32.7032" stroke="#1F2427" stroke-width="2.86452"/>
<path d="M98.8258 19.4548H92.3806M98.8258 26.8548H92.3806M98.8258 34.2548H92.3806" stroke="#1F2427" stroke-width="2.62581"/>
<path d="M98.8258 21.9613H101.213M89.9935 31.7484H92.3806M89.9935 21.9613H92.3806M98.8258 29.3613H101.213M89.9935 24.3484H92.3806M98.8258 31.7484H101.213M115.058 20.2903H122.219" stroke="#1F2427" stroke-width="2.3871"/>
<path d="M159.971 17.75H167.047M159.971 27.0506H167.856" stroke="#F33D3D" stroke-width="3.10323"/>
<path d="M123.413 33.1806V21.4839M113.865 33.1806V21.4839" stroke="#1F2427" stroke-width="2.3871"/>
<path d="M159.501 36.6897V19.3016M174.377 36.7236V19.3355M168.599 36.6897V19.3016" stroke="#F33D3D" stroke-width="3.10323"/>
<path d="M115.058 34.3742H122.219M127.948 33.1806V21.2452M135.11 33.1806V26.0194M126.755 20.2903H129.142M126.755 34.3742H129.142M133.916 34.3742H136.303M129.142 22.4387H131.529H133.916M133.916 24.8258H136.303" stroke="#1F2427" stroke-width="2.3871"/>
<path d="M152.692 35.1381H154.714M175.213 18.0226H177.235" stroke="#F33D3D" stroke-width="3.10323"/>
<path d="M179.179 26.7195H181.2" stroke="#C53434" stroke-width="2.14839"/>
<path d="M181.2 26.7195H179.179H177.157" stroke="#F33D3D" stroke-width="2.14839"/>
<path d="M177.123 18.0226H179.144" stroke="#F33D3D" stroke-width="3.10323"/>
<path d="M175.135 26.7195H177.157" stroke="#F33D3D" stroke-width="2.14839"/>
<path d="M175.135 35.3403H177.761M179.032 18.0226H181.181M177.157 35.3403H179.179H181.2" stroke="#F33D3D" stroke-width="3.10323"/>
<path d="M181.181 20.7677H184.045M181.181 30.3161H184.045M181.2 22.5562H184.065M181.181 28.8839H184.045M181.2 24.578H184.065" stroke="#F33D3D" stroke-width="2.3871"/>
<path d="M181.2 32.6655H184.065" stroke="#C53434" stroke-width="2.3871"/>
<path d="M181.181 32.7032H184.045" stroke="#F33D3D" stroke-width="2.3871"/>
<path d="M144.539 16.471V34.6678M145.009 35.1381H152.692" stroke="#F33D3D" stroke-width="3.10323"/>
</g>
<defs>
<clipPath id="clip0_2_25">
<rect width="184.284" height="37" fill="white"/>
</clipPath>
</defs>
</svg>
