<svg width="210" height="250" viewBox="0 0 210 250" fill="none" xmlns="http://www.w3.org/2000/svg">
<rect y="250" width="250" height="210" rx="6" transform="rotate(-90 0 250)" fill="#0E0E0E"/>
<ellipse cx="191.5" cy="20" rx="15.5" ry="16" fill="#232323"/>
<path d="M194 175.098C194 175.485 193.92 175.825 193.76 176.118C193.593 176.412 193.363 176.642 193.07 176.809C192.776 176.969 192.436 177.049 192.049 177.049H188.047V178.75H186.696V175.548H192.049C192.229 175.548 192.376 175.495 192.489 175.388C192.596 175.275 192.649 175.128 192.649 174.948V173.347H194V175.098ZM194.1 170.709C194.1 171.263 193.95 171.703 193.65 172.03C193.35 172.35 192.943 172.51 192.429 172.51C191.876 172.51 191.452 172.32 191.158 171.94C190.858 171.553 190.708 171 190.708 170.279V169.139H190.298C190.085 169.139 189.914 169.215 189.788 169.369C189.661 169.515 189.598 169.716 189.598 169.969C189.598 170.203 189.651 170.396 189.758 170.549C189.864 170.703 190.011 170.796 190.198 170.83V172.28C189.644 172.22 189.207 171.98 188.887 171.56C188.56 171.133 188.397 170.586 188.397 169.919C188.397 169.219 188.57 168.665 188.917 168.258C189.257 167.845 189.718 167.638 190.298 167.638H194V169.089H193.1V169.329L192.749 169.079C193.163 169.079 193.493 169.229 193.74 169.529C193.98 169.822 194.1 170.216 194.1 170.709ZM192.999 170.149C192.999 169.856 192.923 169.616 192.769 169.429C192.609 169.235 192.402 169.139 192.149 169.139H191.559V170.249C191.559 170.476 191.625 170.659 191.759 170.8C191.886 170.94 192.056 171.01 192.269 171.01C192.496 171.01 192.676 170.933 192.809 170.78C192.936 170.626 192.999 170.416 192.999 170.149ZM194.1 163.429C194.1 163.883 193.97 164.24 193.71 164.5C193.443 164.76 193.073 164.89 192.599 164.89L192.949 164.54V164.89H194V166.341H186.696V164.84H188.197L189.548 164.89V164.54L189.898 164.89C189.424 164.89 189.057 164.76 188.797 164.5C188.53 164.24 188.397 163.883 188.397 163.429C188.397 162.876 188.594 162.432 188.987 162.099C189.374 161.765 189.894 161.598 190.548 161.598H191.949C192.609 161.598 193.133 161.765 193.52 162.099C193.907 162.432 194.1 162.876 194.1 163.429ZM192.799 163.97C192.799 163.69 192.723 163.476 192.569 163.329C192.409 163.176 192.186 163.099 191.899 163.099H190.598C190.311 163.099 190.091 163.176 189.938 163.329C189.778 163.476 189.698 163.69 189.698 163.97C189.698 164.243 189.778 164.457 189.938 164.61C190.091 164.764 190.311 164.84 190.598 164.84H191.899C192.186 164.84 192.409 164.764 192.569 164.61C192.723 164.457 192.799 164.243 192.799 163.97ZM194.1 158C194.1 158.307 194.01 158.554 193.83 158.741C193.643 158.921 193.396 159.011 193.09 159.011C192.776 159.011 192.529 158.921 192.349 158.741C192.169 158.554 192.079 158.307 192.079 158C192.079 157.687 192.169 157.44 192.349 157.26C192.529 157.08 192.776 156.99 193.09 156.99C193.396 156.99 193.643 157.08 193.83 157.26C194.01 157.44 194.1 157.687 194.1 158ZM194 154.342H186.696V152.842H188.497L189.548 152.892V152.451L189.898 152.892C189.431 152.892 189.064 152.758 188.797 152.491C188.53 152.225 188.397 151.864 188.397 151.411C188.397 150.877 188.584 150.45 188.957 150.13C189.331 149.803 189.828 149.64 190.448 149.64H194V151.141H190.598C190.311 151.141 190.091 151.217 189.938 151.371C189.778 151.518 189.698 151.728 189.698 152.001C189.698 152.268 189.778 152.475 189.938 152.621C190.091 152.768 190.311 152.842 190.598 152.842H194V154.342ZM194 148.303H192.639V146.402H189.848V148.053H188.497V145.001H192.639V143.4H194V148.303ZM187.627 145.802C187.627 146.075 187.557 146.295 187.416 146.462C187.276 146.622 187.086 146.702 186.846 146.702C186.606 146.702 186.416 146.622 186.276 146.462C186.136 146.295 186.066 146.075 186.066 145.802C186.066 145.528 186.136 145.311 186.276 145.151C186.416 144.985 186.606 144.901 186.846 144.901C187.086 144.901 187.276 144.985 187.416 145.151C187.557 145.311 187.627 145.528 187.627 145.802ZM194 140.933L188.497 142.734V141.183L191.589 140.263C191.775 140.209 191.979 140.156 192.199 140.103C192.419 140.049 192.596 140.009 192.729 139.983C192.596 139.949 192.419 139.909 192.199 139.862C191.979 139.809 191.779 139.759 191.599 139.712L188.497 138.802V137.271L194 139.052V140.933ZM194.1 133.993C194.1 134.48 194.01 134.907 193.83 135.274C193.643 135.634 193.386 135.914 193.059 136.114C192.726 136.308 192.339 136.405 191.899 136.405H190.598C190.158 136.405 189.774 136.308 189.448 136.114C189.114 135.914 188.857 135.634 188.677 135.274C188.49 134.907 188.397 134.48 188.397 133.993C188.397 133.506 188.49 133.086 188.677 132.733C188.857 132.372 189.114 132.096 189.448 131.902C189.774 131.702 190.158 131.602 190.598 131.602H191.599V134.974H191.899C192.246 134.974 192.509 134.89 192.689 134.724C192.863 134.557 192.949 134.307 192.949 133.973C192.949 133.74 192.909 133.553 192.829 133.413C192.749 133.266 192.639 133.169 192.499 133.123V131.652C192.979 131.772 193.366 132.046 193.66 132.472C193.953 132.893 194.1 133.4 194.1 133.993ZM190.828 133.033H190.578C190.238 133.033 189.978 133.113 189.798 133.273C189.618 133.426 189.528 133.666 189.528 133.993C189.528 134.32 189.621 134.567 189.808 134.734C189.995 134.894 190.258 134.974 190.598 134.974H190.748L190.728 132.933L190.828 133.033ZM194 129.054H190.498V130.515H189.147V129.054H188.397C187.883 129.054 187.473 128.881 187.166 128.534C186.853 128.181 186.696 127.72 186.696 127.153V125.543H187.997V127.103C187.997 127.237 188.04 127.347 188.127 127.434C188.207 127.514 188.314 127.554 188.447 127.554H189.147V125.543H190.498V127.554H194V129.054ZM194.1 122.005C194.1 122.745 193.9 123.325 193.5 123.746C193.1 124.159 192.553 124.366 191.859 124.366H188.497V122.865H191.849C192.156 122.865 192.392 122.792 192.559 122.645C192.719 122.498 192.799 122.285 192.799 122.005C192.799 121.731 192.719 121.521 192.559 121.374C192.392 121.221 192.156 121.144 191.849 121.144H188.497V119.643H191.859C192.559 119.643 193.11 119.853 193.51 120.274C193.903 120.694 194.1 121.271 194.1 122.005ZM194.1 116.235C194.1 116.689 194.03 117.086 193.89 117.426C193.743 117.766 193.543 118.033 193.29 118.227C193.036 118.413 192.739 118.507 192.399 118.507V117.006C192.559 117.006 192.689 116.936 192.789 116.796C192.883 116.649 192.929 116.462 192.929 116.235V115.795C192.929 115.522 192.879 115.315 192.779 115.175C192.679 115.028 192.539 114.955 192.359 114.955C192.192 114.955 192.066 115.018 191.979 115.145C191.886 115.272 191.822 115.468 191.789 115.735L191.709 116.376C191.622 117.063 191.455 117.563 191.209 117.876C190.962 118.19 190.585 118.347 190.078 118.347C189.544 118.347 189.131 118.163 188.837 117.796C188.544 117.429 188.397 116.892 188.397 116.185V115.805C188.397 115.132 188.544 114.595 188.837 114.194C189.131 113.794 189.524 113.594 190.018 113.594V115.095C189.884 115.095 189.778 115.162 189.698 115.295C189.611 115.422 189.568 115.592 189.568 115.805V116.185C189.568 116.432 189.611 116.612 189.698 116.726C189.778 116.839 189.901 116.896 190.068 116.896C190.221 116.896 190.338 116.846 190.418 116.746C190.498 116.639 190.555 116.472 190.588 116.245L190.678 115.555C190.765 114.861 190.938 114.348 191.198 114.014C191.459 113.674 191.846 113.504 192.359 113.504C192.919 113.504 193.35 113.697 193.65 114.084C193.95 114.471 194.1 115.041 194.1 115.795V116.235ZM194 112.307H192.639V110.406H189.848V112.057H188.497V109.005H192.639V107.405H194V112.307ZM187.627 109.806C187.627 110.079 187.557 110.299 187.416 110.466C187.276 110.626 187.086 110.706 186.846 110.706C186.606 110.706 186.416 110.626 186.276 110.466C186.136 110.299 186.066 110.079 186.066 109.806C186.066 109.532 186.136 109.316 186.276 109.156C186.416 108.989 186.606 108.905 186.846 108.905C187.086 108.905 187.276 108.989 187.416 109.156C187.557 109.316 187.627 109.532 187.627 109.806ZM194.1 104.007C194.1 104.494 194.01 104.917 193.83 105.277C193.643 105.638 193.386 105.918 193.059 106.118C192.726 106.311 192.339 106.408 191.899 106.408H190.598C190.158 106.408 189.774 106.311 189.448 106.118C189.114 105.918 188.857 105.638 188.677 105.277C188.49 104.917 188.397 104.494 188.397 104.007C188.397 103.513 188.49 103.09 188.677 102.736C188.857 102.376 189.114 102.099 189.448 101.906C189.774 101.705 190.158 101.605 190.598 101.605H191.899C192.339 101.605 192.726 101.705 193.059 101.906C193.386 102.099 193.643 102.376 193.83 102.736C194.01 103.09 194.1 103.513 194.1 104.007ZM192.799 104.007C192.799 103.713 192.723 103.49 192.569 103.336C192.409 103.183 192.186 103.106 191.899 103.106H190.598C190.305 103.106 190.081 103.183 189.928 103.336C189.774 103.49 189.698 103.713 189.698 104.007C189.698 104.294 189.774 104.517 189.928 104.677C190.081 104.83 190.305 104.907 190.598 104.907H191.899C192.186 104.907 192.409 104.83 192.569 104.677C192.723 104.517 192.799 104.294 192.799 104.007ZM194 100.349H188.497V98.8979H189.548V98.4576L189.898 98.8979C189.431 98.8979 189.064 98.7645 188.797 98.4976C188.53 98.2308 188.397 97.8706 188.397 97.4171C188.397 96.8835 188.584 96.4566 188.957 96.1364C189.331 95.8095 189.828 95.6461 190.448 95.6461H194V97.1469H190.598C190.311 97.1469 190.091 97.2236 189.938 97.377C189.778 97.5238 189.698 97.7339 189.698 98.0074C189.698 98.2742 189.778 98.481 189.938 98.6277C190.091 98.7745 190.311 98.8478 190.598 98.8478H194V100.349ZM194.1 92.0081C194.1 92.3149 194.01 92.5617 193.83 92.7485C193.643 92.9286 193.396 93.0186 193.09 93.0186C192.776 93.0186 192.529 92.9286 192.349 92.7485C192.169 92.5617 192.079 92.3149 192.079 92.0081C192.079 91.6946 192.169 91.4478 192.349 91.2677C192.529 91.0876 192.776 90.9975 193.09 90.9975C193.396 90.9975 193.643 91.0876 193.83 91.2677C194.01 91.4478 194.1 91.6946 194.1 92.0081ZM194 88.31H192.639V86.409H189.848V88.0599H188.497V85.0082H192.639V83.4074H194V88.31ZM187.627 85.8087C187.627 86.0821 187.557 86.3023 187.416 86.469C187.276 86.6291 187.086 86.7091 186.846 86.7091C186.606 86.7091 186.416 86.6291 186.276 86.469C186.136 86.3023 186.066 86.0821 186.066 85.8087C186.066 85.5352 186.136 85.3184 186.276 85.1583C186.416 84.9916 186.606 84.9082 186.846 84.9082C187.086 84.9082 187.276 84.9916 187.416 85.1583C187.557 85.3184 187.627 85.5352 187.627 85.8087ZM194 82.3507H188.497V80.8999H189.548V80.4597L189.898 80.8999C189.431 80.8999 189.064 80.7665 188.797 80.4997C188.53 80.2329 188.397 79.8727 188.397 79.4191C188.397 78.8855 188.584 78.4586 188.957 78.1385C189.331 77.8116 189.828 77.6482 190.448 77.6482H194V79.149H190.598C190.311 79.149 190.091 79.2257 189.938 79.3791C189.778 79.5259 189.698 79.736 189.698 80.0095C189.698 80.2763 189.778 80.483 189.938 80.6298C190.091 80.7765 190.311 80.8499 190.598 80.8499H194V82.3507Z" fill="white"/>
<rect x="17" y="17" width="156" height="214" rx="5" fill="#3D3D3D"/>
<line x1="47" y1="67.6297" x2="131.152" y2="67.6297" stroke="#FFA600" stroke-width="4.74051"/>
<path d="M47 70.0349V25H62.9992V59.3687H77.8133V25H92.6274V59.3687H107.442V25H142.995" stroke="#FFA600" stroke-width="4.74051"/>
<rect x="32" y="77" width="125" height="137" rx="5" fill="#A5A5A5"/>
<path d="M17 84H27.1111C28.7066 84 30 85.2934 30 86.8889V94.1111C30 95.7066 28.7066 97 27.1111 97H17V84Z" fill="#FFA600"/>
<path d="M17 86.8887H21.3333C22.9288 86.8887 24.2222 88.1821 24.2222 89.7776V91.222C24.2222 92.8175 22.9288 94.1109 21.3333 94.1109H17V86.8887Z" fill="white"/>
<path d="M173 84H162.889C161.293 84 160 85.2934 160 86.8889V94.1111C160 95.7066 161.293 97 162.889 97H173V84Z" fill="#FFA600"/>
<path d="M173 86.8887H168.667C167.071 86.8887 165.778 88.1821 165.778 89.7776V91.222C165.778 92.8175 167.071 94.1109 168.667 94.1109H173V86.8887Z" fill="white"/>
<path d="M17 104H27.1111C28.7066 104 30 105.293 30 106.889V114.111C30 115.707 28.7066 117 27.1111 117H17V104Z" fill="#FFA600"/>
<path d="M17 106.889H21.3333C22.9288 106.889 24.2222 108.182 24.2222 109.778V111.222C24.2222 112.817 22.9288 114.111 21.3333 114.111H17V106.889Z" fill="white"/>
<path d="M173 104H162.889C161.293 104 160 105.293 160 106.889V114.111C160 115.707 161.293 117 162.889 117H173V104Z" fill="#FFA600"/>
<path d="M173 106.889H168.667C167.071 106.889 165.778 108.182 165.778 109.778V111.222C165.778 112.817 167.071 114.111 168.667 114.111H173V106.889Z" fill="white"/>
<path d="M17 124H27.1111C28.7066 124 30 125.293 30 126.889V134.111C30 135.707 28.7066 137 27.1111 137H17V124Z" fill="#FFA600"/>
<path d="M17 126.889H21.3333C22.9288 126.889 24.2222 128.182 24.2222 129.778V131.222C24.2222 132.817 22.9288 134.111 21.3333 134.111H17V126.889Z" fill="white"/>
<path d="M173 124H162.889C161.293 124 160 125.293 160 126.889V134.111C160 135.707 161.293 137 162.889 137H173V124Z" fill="#FFA600"/>
<path d="M173 126.889H168.667C167.071 126.889 165.778 128.182 165.778 129.778V131.222C165.778 132.817 167.071 134.111 168.667 134.111H173V126.889Z" fill="white"/>
<path d="M17 144H27.1111C28.7066 144 30 145.293 30 146.889V154.111C30 155.707 28.7066 157 27.1111 157H17V144Z" fill="#FFA600"/>
<path d="M17 146.889H21.3333C22.9288 146.889 24.2222 148.182 24.2222 149.778V151.222C24.2222 152.817 22.9288 154.111 21.3333 154.111H17V146.889Z" fill="white"/>
<path d="M173 144H162.889C161.293 144 160 145.293 160 146.889V154.111C160 155.707 161.293 157 162.889 157H173V144Z" fill="#FFA600"/>
<path d="M173 146.889H168.667C167.071 146.889 165.778 148.182 165.778 149.778V151.222C165.778 152.817 167.071 154.111 168.667 154.111H173V146.889Z" fill="white"/>
<path d="M17 164H27.1111C28.7066 164 30 165.293 30 166.889V174.111C30 175.707 28.7066 177 27.1111 177H17V164Z" fill="#FFA600"/>
<path d="M17 166.889H21.3333C22.9288 166.889 24.2222 168.182 24.2222 169.778V171.222C24.2222 172.817 22.9288 174.111 21.3333 174.111H17V166.889Z" fill="white"/>
<path d="M173 164H162.889C161.293 164 160 165.293 160 166.889V174.111C160 175.707 161.293 177 162.889 177H173V164Z" fill="#FFA600"/>
<path d="M173 166.889H168.667C167.071 166.889 165.778 168.182 165.778 169.778V171.222C165.778 172.817 167.071 174.111 168.667 174.111H173V166.889Z" fill="white"/>
<path d="M17 184H27.1111C28.7066 184 30 185.293 30 186.889V194.111C30 195.707 28.7066 197 27.1111 197H17V184Z" fill="#FFA600"/>
<path d="M17 186.889H21.3333C22.9288 186.889 24.2222 188.182 24.2222 189.778V191.222C24.2222 192.817 22.9288 194.111 21.3333 194.111H17V186.889Z" fill="white"/>
<path d="M173 184H162.889C161.293 184 160 185.293 160 186.889V194.111C160 195.707 161.293 197 162.889 197H173V184Z" fill="#FFA600"/>
<path d="M173 186.889H168.667C167.071 186.889 165.778 188.182 165.778 189.778V191.222C165.778 192.817 167.071 194.111 168.667 194.111H173V186.889Z" fill="white"/>
<path d="M17 204H27.1111C28.7066 204 30 205.293 30 206.889V214.111C30 215.707 28.7066 217 27.1111 217H17V204Z" fill="#FFA600"/>
<path d="M17 206.889H21.3333C22.9288 206.889 24.2222 208.182 24.2222 209.778V211.222C24.2222 212.817 22.9288 214.111 21.3333 214.111H17V206.889Z" fill="white"/>
<path d="M173 204H162.889C161.293 204 160 205.293 160 206.889V214.111C160 215.707 161.293 217 162.889 217H173V204Z" fill="#FFA600"/>
<path d="M173 206.889H168.667C167.071 206.889 165.778 208.182 165.778 209.778V211.222C165.778 212.817 167.071 214.111 168.667 214.111H173V206.889Z" fill="white"/>
<path d="M38 231V220.889C38 219.293 39.2934 218 40.8889 218H48.1111C49.7066 218 51 219.293 51 220.889V231H38Z" fill="#FFA600"/>
<path d="M40.8887 231V226.667C40.8887 225.071 42.1821 223.778 43.7776 223.778H45.222C46.8175 223.778 48.1109 225.071 48.1109 226.667V231H40.8887Z" fill="white"/>
<path d="M58 231V220.889C58 219.293 59.2934 218 60.8889 218H68.1111C69.7066 218 71 219.293 71 220.889V231H58Z" fill="#FFA600"/>
<path d="M60.8887 231V226.667C60.8887 225.071 62.1821 223.778 63.7776 223.778H65.222C66.8175 223.778 68.1109 225.071 68.1109 226.667V231H60.8887Z" fill="white"/>
<path d="M78 231V220.889C78 219.293 79.2934 218 80.8889 218H88.1111C89.7066 218 91 219.293 91 220.889V231H78Z" fill="#FFA600"/>
<path d="M80.8887 231V226.667C80.8887 225.071 82.1821 223.778 83.7776 223.778H85.222C86.8175 223.778 88.1109 225.071 88.1109 226.667V231H80.8887Z" fill="white"/>
<path d="M98 231V220.889C98 219.293 99.2934 218 100.889 218H108.111C109.707 218 111 219.293 111 220.889V231H98Z" fill="#FFA600"/>
<path d="M100.889 231V226.667C100.889 225.071 102.182 223.778 103.778 223.778H105.222C106.817 223.778 108.111 225.071 108.111 226.667V231H100.889Z" fill="white"/>
<path d="M118 231V220.889C118 219.293 119.293 218 120.889 218H128.111C129.707 218 131 219.293 131 220.889V231H118Z" fill="#FFA600"/>
<path d="M120.889 231V226.667C120.889 225.071 122.182 223.778 123.778 223.778H125.222C126.817 223.778 128.111 225.071 128.111 226.667V231H120.889Z" fill="white"/>
<path d="M138 231V220.889C138 219.293 139.293 218 140.889 218H148.111C149.707 218 151 219.293 151 220.889V231H138Z" fill="#FFA600"/>
<path d="M140.889 231V226.667C140.889 225.071 142.182 223.778 143.778 223.778H145.222C146.817 223.778 148.111 225.071 148.111 226.667V231H140.889Z" fill="white"/>
<rect x="141" y="61" width="20" height="9.62963" rx="1.48148" fill="white"/>
<path d="M152.852 61H159.518C160.336 61 161 61.6633 161 62.4815V69.1481C161 69.9663 160.336 70.6296 159.518 70.6296H152.852V61Z" fill="#CF3030"/>
<path d="M162 59.5H141H140V72H162V59.5Z" stroke="white" stroke-width="0.5"/>
<path d="M207 20C207 28.8366 200.06 36 191.5 36C182.94 36 176 28.8366 176 20C176 11.1634 182.94 4 191.5 4C200.06 4 207 11.1634 207 20ZM178.512 20C178.512 27.4044 184.327 33.4068 191.5 33.4068C198.673 33.4068 204.488 27.4044 204.488 20C204.488 12.5956 198.673 6.59321 191.5 6.59321C184.327 6.59321 178.512 12.5956 178.512 20Z" fill="#D9D9D9"/>
</svg>
