<svg width="32" height="32" viewBox="0 0 32 32" fill="none" xmlns="http://www.w3.org/2000/svg">
<g clip-path="url(#clip0_2_52)">
<path d="M1.90015 1.3H7.10015L10.5841 18.707C10.703 19.3055 11.0286 19.8431 11.504 20.2258C11.9793 20.6084 12.5741 20.8117 13.1841 20.8H25.8201C26.4302 20.8117 27.025 20.6084 27.5003 20.2258C27.9757 19.8431 28.3013 19.3055 28.4201 18.707L30.5001 7.8H8.40015M13.6001 27.3C13.6001 28.018 13.0181 28.6 12.3001 28.6C11.5822 28.6 11.0001 28.018 11.0001 27.3C11.0001 26.582 11.5822 26 12.3001 26C13.0181 26 13.6001 26.582 13.6001 27.3ZM27.9001 27.3C27.9001 28.018 27.3181 28.6 26.6001 28.6C25.8822 28.6 25.3001 28.018 25.3001 27.3C25.3001 26.582 25.8822 26 26.6001 26C27.3181 26 27.9001 26.582 27.9001 27.3Z" stroke="#1E1E1E" stroke-width="2.6" stroke-linecap="round" stroke-linejoin="round"/>
</g>
<defs>
<clipPath id="clip0_2_52">
<rect width="31.2" height="31.2" fill="white" transform="translate(0.600098)"/>
</clipPath>
</defs>
</svg>
