<svg width="37" height="37" viewBox="0 0 37 37" fill="none" xmlns="http://www.w3.org/2000/svg">
<path d="M26.4646 19.5656L20.4444 33.1111C19.2469 33.1111 18.0984 32.6354 17.2517 31.7886C16.4049 30.9419 15.9292 29.7934 15.9292 28.5959V22.5757H7.41064C6.97432 22.5807 6.54213 22.4907 6.14403 22.312C5.74594 22.1333 5.39144 21.8703 5.10512 21.541C4.81879 21.2117 4.60748 20.8241 4.48582 20.4051C4.36416 19.986 4.33506 19.5455 4.40054 19.1141L6.47751 5.56865C6.58636 4.85088 6.95095 4.19664 7.5041 3.72646C8.05725 3.25628 8.76168 3.00186 9.48761 3.01007H26.4646M26.4646 19.5656V3.01007M26.4646 19.5656H30.4831C31.3349 19.5807 32.1625 19.2825 32.809 18.7276C33.4554 18.1727 33.8756 17.3998 33.9898 16.5555V6.02017C33.8756 5.17592 33.4554 4.40299 32.809 3.84811C32.1625 3.29322 31.3349 2.995 30.4831 3.01007H26.4646" stroke="#1E1E1E" stroke-width="3.0101" stroke-linecap="round" stroke-linejoin="round"/>
</svg>
