<svg width="37" height="37" viewBox="0 0 37 37" fill="none" xmlns="http://www.w3.org/2000/svg">
<path d="M10.5354 16.5555L16.5556 3.01001C17.7531 3.01001 18.9015 3.48571 19.7483 4.33247C20.595 5.17922 21.0707 6.32767 21.0707 7.52516V13.5454H29.5893C30.0257 13.5404 30.4578 13.6304 30.8559 13.8091C31.254 13.9877 31.6085 14.2508 31.8948 14.5801C32.1812 14.9094 32.3925 15.297 32.5141 15.716C32.6358 16.1351 32.6649 16.5756 32.5994 17.007L30.5225 30.5524C30.4136 31.2702 30.049 31.9244 29.4959 32.3946C28.9427 32.8648 28.2383 33.1192 27.5124 33.111H10.5354M10.5354 16.5555V33.111M10.5354 16.5555H6.02023C5.2219 16.5555 4.45627 16.8726 3.89177 17.4371C3.32727 18.0016 3.01013 18.7672 3.01013 19.5656V30.1009C3.01013 30.8992 3.32727 31.6649 3.89177 32.2294C4.45627 32.7939 5.2219 33.111 6.02023 33.111H10.5354" stroke="#1E1E1E" stroke-width="3.0101" stroke-linecap="round" stroke-linejoin="round"/>
</svg>
