<svg width="369" height="74" viewBox="0 0 369 74" fill="none" xmlns="http://www.w3.org/2000/svg">
<g clip-path="url(#clip0_426_260)">
<path d="M3.34168 67.795V0M2.86426 37.7161H30.5546M32.9417 67.7935V41.0581M49.1739 39.1484V67.7935M48.2191 37.2387V34.3742" stroke="white" stroke-width="6.68387"/>
<path d="M213.884 42.4903V71.1355M213.884 40.5806V37.7161M116.491 51.0839V46.3097M102.168 70.1806V65.4064" stroke="white" stroke-width="5.72903"/>
<path d="M110.762 67.7935H115.536" stroke="white" stroke-width="4.77419"/>
<path d="M67.7937 64.4516V59.6774M78.7744 64.4516V59.6774M73.0453 69.2258V64.4516M84.5034 59.6774V35.8065M63.0195 59.6774V35.8065" stroke="white" stroke-width="6.68387"/>
<path d="M159.458 70.6581V65.8839M165.187 70.6581V65.8839M168.051 70.6581V65.8839M153.729 65.8839V35.8065M173.78 65.8839V35.8065M131.29 42.4903V36.2839M137.019 42.4903V36.2839M142.748 47.2645V41.0581M131.29 55.8581V51.0839M137.019 55.8581V51.0839M125.561 42.0129V70.1807M116.49 46.3097V41.5355M107.897 70.1807V65.4065M99.303 38.671H113.626M99.303 53.9484H113.626M96.4385 41.5355V65.4065" stroke="white" stroke-width="5.72903"/>
<path d="M197.652 38.9097H184.762M197.652 53.7097H184.762M197.652 68.5097H184.762" stroke="white" stroke-width="5.25161"/>
<path d="M197.652 43.9226H202.426M179.987 63.4968H184.761M179.987 43.9226H184.761M197.652 58.7226H202.426M179.987 48.6968H184.761M197.652 63.4968H202.426M230.116 40.5807H244.439" stroke="white" stroke-width="4.77419"/>
<path d="M319.941 35.4999H334.095M319.941 54.1012H335.712" stroke="white" stroke-width="6.20645"/>
<path d="M246.826 66.3613V42.9677M227.729 66.3613V42.9677" stroke="white" stroke-width="4.77419"/>
<path d="M319.001 73.3794V38.6032M348.755 73.4472V38.671M337.198 73.3794V38.6032" stroke="white" stroke-width="6.20645"/>
<path d="M230.116 68.7484H244.439M255.897 66.3613V42.4903M270.219 66.3613V52.0387M253.51 40.5807H258.284M253.51 68.7484H258.284M267.832 68.7484H272.607M258.284 44.8774H263.058H267.832M267.832 49.6516H272.607" stroke="white" stroke-width="4.77419"/>
<path d="M305.384 70.2761H309.428M350.425 36.0452H354.469" stroke="white" stroke-width="6.20645"/>
<path d="M358.357 53.439H362.401" stroke="white" stroke-width="4.29677"/>
<path d="M362.401 53.439H358.357H354.313" stroke="white" stroke-width="4.29677"/>
<path d="M354.245 36.0452H358.289" stroke="white" stroke-width="6.20645"/>
<path d="M350.27 53.439H354.313" stroke="white" stroke-width="4.29677"/>
<path d="M350.27 70.6805H355.521M358.064 36.0452H362.361M354.313 70.6805H358.357H362.401" stroke="white" stroke-width="6.20645"/>
<path d="M362.361 41.5355H368.09M362.361 60.6323H368.09M362.401 45.1123H368.13M362.361 57.7678H368.09M362.401 49.1561H368.13" stroke="white" stroke-width="4.77419"/>
<path d="M362.401 65.331H368.13" stroke="white" stroke-width="4.77419"/>
<path d="M362.361 65.4065H368.09" stroke="white" stroke-width="4.77419"/>
<path d="M289.077 32.9419V69.3356M290.018 70.2761H305.384" stroke="white" stroke-width="6.20645"/>
</g>
<defs>
<clipPath id="clip0_426_260">
<rect width="368.568" height="74" fill="white"/>
</clipPath>
</defs>
</svg>
